<svg xmlns="http://www.w3.org/2000/svg" viewBox="0 0 100 100" fill="none" shape-rendering="auto" aria-hidden="true"><!-- Generated by DiceBear (https://www.dicebear.com) --><metadata xmlns:rdf="http://www.w3.org/1999/02/22-rdf-syntax-ns#" xmlns:xsi="http://www.w3.org/2001/XMLSchema-instance" xmlns:dc="http://purl.org/dc/elements/1.1/" xmlns:dcterms="http://purl.org/dc/terms/"><rdf:RDF><rdf:Description><dc:title>Slice</dc:title><dc:creator>DiceBear</dc:creator><dc:source xsi:type="dcterms:URI">https://www.dicebear.com</dc:source><dcterms:license xsi:type="dcterms:URI">https://creativecommons.org/publicdomain/zero/1.0/</dcterms:license><dc:rights>“Slice” (https://www.dicebear.com) by “DiceBear”, licensed under “CC0 1.0” (https://creativecommons.org/publicdomain/zero/1.0/)</dc:rights></rdf:Description></rdf:RDF></metadata><defs><clipPath id="dbsl-3-0"><path d="M-80-80h260V37.93H-80z"/></clipPath><clipPath id="dbsl-3-1"><path d="M-80 37.33h260v25.93H-80z"/></clipPath><clipPath id="dbsl-3-2"><path d="M-80 62.67h260V180H-80z"/></clipPath><g id="shape-diamond-0353614f"><path d="M37.27 24.73Q50 12 62.73 24.73l12.54 12.54Q88 50 75.27 62.73L62.73 75.27Q50 88 37.27 75.27L24.73 62.73Q12 50 24.73 37.27Z" fill="currentColor"/></g><g id="cuts-triDeep-0353614f"><g clip-path="url(#dbsl-3-0)" transform="translate(-4)"><use color="#7d8b56" transform="translate(50, 50) scale(1.0196) translate(-50, -50)" href="#shape-diamond-0353614f"/><use color="#ffffff" opacity=".2" transform="translate(50, 50) scale(1.0196) translate(-50, -50)" href="#shape-diamond-0353614f"/></g><g clip-path="url(#dbsl-3-1)"><use color="#7d8b56" transform="translate(50, 50) scale(1.0196) translate(-50, -50)" href="#shape-diamond-0353614f"/><use color="#000000" opacity=".46" transform="translate(50, 50) scale(1.0196) translate(-50, -50)" href="#shape-diamond-0353614f"/></g><g clip-path="url(#dbsl-3-2)" transform="translate(4)"><use color="#7d8b56" transform="translate(50, 50) scale(1.0196) translate(-50, -50)" href="#shape-diamond-0353614f"/></g></g><clipPath id="clip-0353614f"><rect width="100" height="100" rx="0" ry="0"/></clipPath></defs><g clip-path="url(#clip-0353614f)"><rect width="100" height="100" fill="#eff2ef"/><use transform="rotate(45, 50, 50)" href="#cuts-triDeep-0353614f"/></g></svg>